<svg xmlns="http://www.w3.org/2000/svg" viewBox="0 0 1200 630" role="img" aria-labelledby="title desc">
  <title id="title">Claw Open Graph Logo Card</title>
  <desc id="desc">Open Graph logo card for Claw website sharing.</desc>
  <defs>
    <filter id="ogShadow" x="-20%" y="-20%" width="140%" height="140%">
      <feDropShadow dx="0" dy="24" stdDeviation="24" flood-color="#044AE9" flood-opacity=".16"/>
    </filter>
  </defs>
  <rect width="1200" height="630" rx="0" fill="#FFFFFF"/>
  <rect x="44" y="44" width="1112" height="542" rx="54" fill="#F4F8FF"/>
  <circle cx="1048" cy="106" r="48" fill="#EAF2FF"/>
  <circle cx="966" cy="524" r="76" fill="#EAF2FF"/>
  <g transform="translate(260 151)">
    <g transform="scale(.3203125)" filter="url(#ogShadow)">
      <rect width="1024" height="1024" rx="224" fill="#FFFFFF"/>
      <rect x="108" y="108" width="808" height="808" rx="184" fill="#F4F8FF"/>
      <path d="M661 275C601 229 525 211 451 225C331 247 235 343 216 466C191 626 300 774 460 801C545 815 630 790 694 735C723 710 748 680 766 646" fill="none" stroke="#044AE9" stroke-width="132" stroke-linecap="round" stroke-linejoin="round"/>
      <path d="M685 350L826 511L675 670L638 571L533 535L685 350Z" fill="#044AE9"/>
      <path d="M690 438L751 512L690 585L676 548L636 532L690 438Z" fill="#FFFFFF" opacity=".94"/>
    </g>
    <text x="388" y="155" fill="#0B1220" font-family="Inter, ui-sans-serif, system-ui, -apple-system, BlinkMacSystemFont, Segoe UI, sans-serif" font-size="138" font-weight="760" letter-spacing="0">Claw</text>
    <text x="394" y="218" fill="#44617F" font-family="Inter, ui-sans-serif, system-ui, -apple-system, BlinkMacSystemFont, Segoe UI, sans-serif" font-size="34" font-weight="520" letter-spacing="0">multi-provider AI desktop client</text>
  </g>
</svg>
